<?xml version="1.0" encoding="utf-8"?>
<!-- Generator: Adobe Illustrator 23.0.3, SVG Export Plug-In . SVG Version: 6.00 Build 0)  -->
<svg version="1.1" id="Layer_1" xmlns="http://www.w3.org/2000/svg" xmlns:xlink="http://www.w3.org/1999/xlink" x="0px" y="0px"
	 viewBox="0 0 504 360" style="enable-background:new 0 0 504 360;" xml:space="preserve">
<style type="text/css">
	.st0{fill:#FFFFFF;}
</style>
<g>
	<g>
		<path class="st0" d="M0.24,237.36c0-59.18,0-118.36,0-177.54c167.76,0,335.52,0,503.28,0c-0.08,0.08-0.15,0.19-0.24,0.22
			c-4.99,1.67-10,3.3-14.97,5.02c-0.54,0.19-1.13,0.76-1.33,1.3c-1.35,3.58-2.6,7.19-3.88,10.8c-2.64,7.44-5.27,14.88-7.95,22.3
			c-0.54,1.51-1.27,2.96-1.77,4.11c-2.14-0.59-4.02-1.41-5.96-1.59c-4.55-0.42-8.51,1.47-12.21,3.89
			c-4.36,2.86-8.15,6.4-11.23,10.58c-2.33,3.17-4.55,6.47-6.34,9.96c-1.54,2.99-2.47,6.29-3.54,9.5c-1.73,5.16-4.14,9.99-7.14,14.49
			c-1.41,2.11-3.15,4.02-4.9,5.87c-0.98,1.03-1.99,0.81-2.8-0.41c-0.37-0.56-0.6-1.3-0.62-1.97c-0.12-4.02,1.45-7.65,2.75-11.33
			c2.24-6.31,5.22-12.36,6.21-19.1c0.58-3.99-1.4-6.2-5.01-6.38c-3.08-0.15-5.7,1.18-8.23,2.69c-3.72,2.23-6.81,5.22-9.78,8.33
			c-0.97,1.02-1.93,2.05-2.89,3.07c-0.05-0.03-0.1-0.07-0.15-0.1c0.82-2.39,1.64-4.77,2.53-7.39c-2.99,0.98-5.64,2.06-8.39,2.69
			c-2.26,0.52-3.44,1.51-4.19,3.83c-2.46,7.63-5.32,15.14-7.89,22.74c-1.97,5.83-4.57,11.35-8.11,16.37
			c-1.54,2.18-3.23,4.36-6.09,5.09c-2.19,0.56-3.63-0.52-3.73-2.79c-0.19-4.05,0.95-7.83,2.14-11.61
			c2.61-8.26,5.99-16.21,9.62-24.06c0.63-1.37,1.24-2.75,1.9-4.21c-0.27,0.04-0.43,0.03-0.57,0.08c-4.17,1.4-8.34,2.84-12.53,4.2
			c-0.73,0.24-1.09,0.55-1.32,1.3c-0.31,0.99-0.85,1.91-1.33,2.94c-1.97-1.59-4.24-2.18-6.52-2.18c-2.52,0-4.98,0.67-7.3,1.76
			c-7.57,3.55-13.18,9.3-17.73,16.11c-2.03,3.04-3.7,6.33-5.32,9.62c-2.14,4.35-4.84,8.34-7.69,12.22
			c-2.03,2.77-3.94,5.69-6.78,7.76c-0.36,0.26-1.02,0.62-1.21,0.48c-0.35-0.25-0.61-0.84-0.62-1.3c-0.03-0.82,0.03-1.69,0.25-2.48
			c1.29-4.76,2.45-9.57,4-14.26c2.53-7.69,5.25-15.33,8.02-22.94c2.65-7.3,5.44-14.56,8.19-21.83c0.82-2.18,1.7-4.35,2.6-6.65
			c-5.2,1.66-10.17,3.37-15.22,4.81c-1.54,0.44-2.09,1.35-2.54,2.61c-2.72,7.62-5.43,15.25-8.16,22.87
			c-2.94,8.22-5.93,16.42-8.84,24.64c-1.16,3.28-2.26,6.56-4.42,9.36c-1.23,1.59-2.45,3.2-3.52,4.9c-1.34,2.12-2.38,4.45-3.83,6.48
			c-1.08,1.52-2.58,2.74-3.93,4.05c-0.48,0.47-1,0.36-1.57-0.04c-1.78-1.24-1.62-3.15-1.26-4.76c0.71-3.18,1.72-6.31,2.79-9.4
			c2.2-6.36,5.27-12.45,6.17-19.21c0.37-2.79-0.47-5.12-3.6-5.89c-2.55-0.63-4.86,0.05-7.11,1.1c-3.75,1.74-6.89,4.32-9.86,7.15
			c-1.89,1.81-3.94,3.45-5.22,4.56c0.48-1.39,1.29-3.77,2.18-6.37c-3.85,1.21-7.45,2.32-11.03,3.5c-0.31,0.1-0.6,0.57-0.73,0.93
			c-2.88,8.19-5.76,16.38-8.58,24.58c-2.03,5.88-4.6,11.5-8.22,16.57c-1.55,2.17-3.23,4.34-6.08,5.08c-2.2,0.57-3.63-0.51-3.75-2.79
			c-0.17-3.11,0.47-6.09,1.33-9.01c2.16-7.41,5.04-14.57,8.16-21.62c1.35-3.06,2.74-6.11,4.11-9.17c-0.08-0.02-0.17-0.07-0.23-0.05
			c-4.42,1.46-8.84,2.91-13.24,4.41c-0.34,0.11-0.63,0.55-0.8,0.91c-0.48,1.01-0.89,2.06-1.35,3.16c-3.64-2.48-7.39-2.57-11.3-1.33
			c-3.63,1.15-6.78,3.08-9.76,5.44c-4.15,3.29-7.71,7.13-10.53,11.57c-2.45,3.85-4.48,7.96-6.79,11.9
			c-1.96,3.33-3.95,6.64-6.13,9.82c-1.71,2.49-3.65,4.84-5.65,7.11c-1.39,1.58-2.96,3.04-4.6,4.37c-2.08,1.7-4.22,3.33-6.89,4.07
			c-2.24,0.62-4.16-0.13-5.17-2.21c-0.51-1.05-0.81-2.19-1.21-3.31c0.32-0.19,0.52-0.32,0.72-0.42c2.37-1.16,4.8-2.22,7.11-3.49
			c4.59-2.53,8.66-5.71,11.6-10.15c1.89-2.84,2.89-6.01,2.92-9.38c0.03-2.91-0.77-5.7-2.05-8.33c-0.68-1.4-3.13-2.81-4.57-2.44
			c-2.24,0.58-4.52,1.15-6.61,2.1c-4.92,2.24-8.95,5.78-12.81,9.48c-1.71,1.64-3.12,3.59-4.69,5.38c-2.66,3.03-4.73,6.45-6.26,10.15
			c-0.87,2.09-1.35,4.36-1.87,6.58c-0.43,1.82-0.16,3.81-1.51,5.38c-0.33,0.38-0.53,0.87-0.79,1.31c-1.93,3.21-4.07,6.26-6.89,8.75
			c-0.54,0.48-1.26,0.82-1.95,1.05c-0.64,0.21-1.22,0.02-1.15-0.87c0.1-1.27,0.02-2.58,0.32-3.8c2.16-8.87,5.22-17.46,8.23-26.06
			c2.05-5.85,4.24-11.65,6.42-17.45c1.96-5.21,3.98-10.39,5.99-15.57c1.07-2.77,2.17-5.53,3.29-8.39
			c-5.42,1.72-10.7,3.38-15.95,5.08c-0.47,0.15-1.06,0.48-1.23,0.88c-0.7,1.67-1.25,3.41-1.88,5.11
			c-3.29,8.92-6.59,17.84-9.88,26.77c-2.45,6.66-4.88,13.34-7.35,19.99c-1.48,3.99-3.05,7.95-4.52,11.94
			c-1.32,3.61-2.62,7.21-2.46,11.18c0.24,6,4.8,8.18,9.59,7.45c3.43-0.52,6.21-2.57,8.72-4.84c4.26-3.86,7.95-8.25,11.26-12.95
			c0.92-1.31,1.82-2.62,2.55-3.67c1.56,1.93,2.98,3.94,4.65,5.71c2.72,2.88,6.13,4.11,10.12,3.88c3.84-0.22,7.07-1.86,10.12-3.99
			c3.19-2.22,5.99-4.87,8.38-7.92c2.44-3.11,4.73-6.33,7.03-9.55c1.06-1.49,1.99-3.07,3.02-4.67c0.13,1.81,0.08,3.5,0.4,5.13
			c0.87,4.48,2.9,6.62,7.84,6.8c3.9,0.14,7.25-1.19,10.47-3.26c3.76-2.42,6.87-5.5,9.75-8.85c1.27-1.47,2.49-3,3.76-4.53
			c0.4,1.11,0.68,2.18,1.15,3.17c1.51,3.15,3.73,5.27,7.88,3.62c3.46-1.38,5.98-4.01,8.41-6.7c1.32-1.46,2.5-3.05,3.75-4.58
			c0.04,0.02,0.09,0.04,0.13,0.06c-0.85,2.58-1.71,5.16-2.6,7.86c0.31-0.08,0.5-0.11,0.67-0.17c4-1.35,8.01-2.69,11.99-4.09
			c0.46-0.16,0.94-0.66,1.14-1.11c0.59-1.37,1.02-2.82,1.57-4.21c2.48-6.36,4.86-12.76,7.5-19.06c1.51-3.61,3.62-6.94,6.18-9.93
			c1.88-2.19,4.07-4.01,6.94-4.84c2.1-0.61,3.2,0.02,2.9,2.12c-0.38,2.68-1.14,5.3-1.83,7.93c-1.1,4.2-2.26,8.36-2,12.81
			c0.25,4.31,4.34,7.45,8.55,6.41c2.89-0.71,5.17-2.37,7.19-4.41c1.78-1.79,3.4-3.73,5.15-5.67c0.11,0.45,0.24,0.85,0.32,1.26
			c0.63,3.4,3.16,6.21,7,6.13c2.41-0.05,4.4-1,6.28-2.22c3.39-2.2,6.31-4.96,8.87-8.08c1.96-2.39,3.99-4.72,5.91-7.14
			c1.16-1.46,2.18-3.04,3.32-4.65c0.13,2.02,0.1,3.87,0.41,5.66c0.51,2.99,1.75,5.56,5.05,6.39c2.89,0.72,5.8,0.6,8.57-0.46
			c5.86-2.23,10.25-6.43,14.27-11.05c1.33-1.53,2.59-3.13,3.94-4.77c0.14,0.47,0.24,0.84,0.36,1.2c0.68,1.92,1.42,3.8,3.06,5.14
			c1.87,1.53,4.58,1.31,7.25-0.33c3.32-2.05,5.98-4.81,8.35-7.88c0.68-0.88,1.41-1.72,2.12-2.58c0.05,0.03,0.09,0.06,0.14,0.09
			c-0.85,2.57-1.7,5.13-2.55,7.71c0.2,0.04,0.29,0.08,0.35,0.06c4.22-1.44,8.45-2.87,12.66-4.34c0.26-0.09,0.52-0.44,0.63-0.72
			c1.46-3.97,2.82-7.97,4.35-11.91c1.59-4.08,3.13-8.2,5.09-12.11c1.64-3.27,3.67-6.38,5.85-9.32c1.75-2.36,4.11-4.22,7.08-4.98
			c1.82-0.47,3.16-0.2,2.85,2.09c-0.32,2.29-0.86,4.57-1.48,6.8c-1.26,4.6-2.64,9.13-2.36,14.02c0.24,4.18,4.3,7.4,8.36,6.45
			c2.81-0.65,5.13-2.15,7.05-4.17c2.24-2.35,4.24-4.93,6.3-7.43c0.81-0.98,1.53-2.04,2.27-3.04c0.19,0.09,0.24,0.1,0.25,0.13
			c0.04,0.11,0.06,0.23,0.11,0.34c0.7,1.65,1.35,3.33,3.13,4.17c2.89,1.36,5.87,1.47,8.9,0.56c6.44-1.93,11.04-6.38,15.39-11.19
			c0.73-0.8,1.43-1.63,2.08-2.37c0.72,0.87,1.24,1.76,1.98,2.36c2.7,2.14,5.81,2.26,9.01,1.55c3.75-0.83,6.8-2.94,9.53-5.51
			c5.02-4.74,8.62-10.52,11.76-16.6c1.13-2.2,2.15-4.45,3.32-6.88c-1.09,0.2-1.92,0.46-2.77,0.49c-1.04,0.04-1.63,0.49-2.28,1.32
			c-2.09,2.69-4.29,5.31-6.56,7.85c-1.11,1.24-2.53,2.12-4.2,2.55c-0.94,0.24-1.43-0.11-1.4-1.02c0.03-1.19,0.02-2.41,0.31-3.55
			c1.07-4.24,2.09-8.51,3.44-12.67c2.7-8.31,5.53-16.58,8.44-24.81c2.67-7.56,5.49-15.06,8.28-22.57c0.72-1.95,1.58-3.84,2.37-5.76
			c0,79.94,0,159.87,0,239.85c-146.51,0-293.02,0-439.53,0c0.2-0.08,0.4-0.22,0.61-0.23c1.63-0.1,3.26-0.1,4.88-0.27
			c3.35-0.35,6.71-0.63,10.02-1.21c5.13-0.89,10.3-1.71,15.32-3.07c9.21-2.51,18.38-5.22,27.46-8.18
			c7.84-2.55,15.55-5.53,23.29-8.38c6.97-2.57,13.89-5.25,20.84-7.85c7.42-2.77,14.8-5.65,22.29-8.21c7.32-2.5,14.72-4.8,22.18-6.89
			c5-1.4,10.13-2.43,15.25-3.32c4.16-0.72,8.4-1.12,12.62-1.43c2.41-0.18,4.86,0.09,7.3,0.2c4.01,0.18,7.9,0.98,11.69,2.33
			c0.8,0.28,1.6,0.56,2.45,0.86c2.47-8.34,4.9-16.54,7.34-24.76c-1.98-0.28-3.85-0.68-5.74-0.79c-3.24-0.19-6.51-0.35-9.75-0.23
			c-4.04,0.15-8.1,0.43-12.1,0.97c-4.18,0.57-8.37,1.28-12.45,2.35c-5.98,1.57-11.95,3.27-17.76,5.37
			c-7.93,2.86-15.79,5.96-23.54,9.28c-8.38,3.6-16.6,7.55-24.87,11.39c-5.76,2.68-11.48,5.46-17.25,8.12
			c-5.52,2.55-11.05,5.07-16.64,7.46c-7.07,3.03-14.23,5.86-21.61,8.08c-6.71,2.01-13.45,3.78-20.46,4.46
			c-4.02,0.39-8,0.56-12.04,0.25c-4.54-0.35-8.91-1.29-13.14-2.95c-4.92-1.93-9.28-4.75-13.11-8.37c-3.83-3.62-7.04-7.73-9.7-12.3
			c-3.48-5.98-5.57-12.4-6.04-19.27c-0.31-4.6-0.05-9.2,0.85-13.79c1.6-8.19,4.88-15.68,9.1-22.78c2.93-4.93,6.46-9.47,10.34-13.68
			c3.75-4.08,7.8-7.88,12.22-11.23c5.14-3.89,10.52-7.44,16.5-9.9c3.78-1.56,7.71-2.74,11.56-4.14c0.99-0.36,1.52,0.08,2.07,0.77
			c3.28,4.08,6.58,8.14,9.84,12.24c0.37,0.46,0.78,1.25,0.63,1.7c-1.59,4.67-3.3,9.3-4.97,13.95c-0.82,2.28-1.65,4.56-2.53,7.02
			c6.39-2.41,12.55-4.72,18.7-7.07c0.35-0.13,0.7-0.54,0.85-0.9c2.25-5.47,4.45-10.97,6.74-16.43c0.3-0.72,0.2-1.17-0.2-1.65
			c-2.9-3.56-5.82-7.12-8.73-10.67c-2.83-3.46-5.67-6.91-8.52-10.38c-2.12,0.55-4.29,1-6.37,1.68c-7.86,2.56-15.77,4.98-23.5,7.86
			c-6.9,2.57-13.67,5.54-20.38,8.6c-6.25,2.86-12.2,6.32-18.03,10c-5.5,3.48-10.75,7.27-15.58,11.6c-2.92,2.62-5.6,5.54-8.24,8.45
			c-4.6,5.05-8.14,10.8-10.66,17.15c-1.52,3.83-2.62,7.78-3.02,11.91C0.6,235.04,0.4,236.2,0.24,237.36z M351.14,223.69
			c-0.09,0.03-0.17,0.06-0.26,0.08c-2.03-2.76-4.06-5.53-6.11-8.28c-0.22-0.3-0.56-0.7-0.86-0.71c-1.42-0.08-2.84-0.03-4.3-0.03
			c0,5.68,0,11.2,0,16.75c1.54,0,2.99,0,4.59,0c0-3.19,0-6.31,0-9.68c2.27,3.11,4.36,5.99,6.48,8.86c0.27,0.36,0.67,0.82,1.04,0.86
			c1.26,0.11,2.54,0.04,3.89,0.04c0-5.66,0-11.21,0-16.78c-1.51,0-2.94,0-4.47,0C351.14,217.79,351.14,220.74,351.14,223.69z
			 M382.26,224.01c0.52-0.25,0.99-0.44,1.43-0.69c1.77-1.01,2.41-2.6,2.22-4.56c-0.17-1.81-1.24-2.98-2.9-3.46
			c-3.48-1-7.05-0.42-10.57-0.56c0,5.69,0,11.2,0,16.78c1.65,0,3.23,0,4.95,0c0-1.91,0-3.77,0-5.71c1.09,0.05,1.72,0.56,2.07,1.38
			c0.5,1.18,0.89,2.4,1.4,3.57c0.15,0.33,0.53,0.78,0.83,0.79c1.63,0.08,3.26,0.04,5.15,0.04
			C385.37,228.88,385.39,225.57,382.26,224.01z M337.31,231.58c0.02-0.24,0.05-0.32,0.03-0.39c-1.7-5.26-3.39-10.51-5.13-15.75
			c-0.1-0.31-0.65-0.64-1.01-0.66c-1.48-0.07-2.96,0.01-4.44-0.05c-0.74-0.03-1.03,0.25-1.26,0.92c-1.16,3.45-2.37,6.89-3.56,10.33
			c-0.62,1.8-1.22,3.61-1.87,5.54c1.87,0,3.57,0,5.34,0c0.26-0.99,0.53-1.98,0.8-2.99c1.74,0,3.4,0,5.1,0
			c0.19,0.75,0.42,1.43,0.53,2.14c0.12,0.74,0.47,0.97,1.21,0.94C334.45,231.54,335.85,231.58,337.31,231.58z M318.55,214.83
			c-3.44,0-6.85,0-10.27,0c0,5.61,0,11.15,0,16.66c3.6,0,7.11,0,10.64,0c0-1.36,0-2.62,0-4.03c-1.94,0-3.8,0-5.67,0
			c0-0.78,0-1.4,0-2.16c1.68,0,3.3,0,4.95,0c0-1.4,0-2.66,0-4.07c-1.68,0-3.3,0-4.95,0c0-0.85,0-1.55,0-2.42c1.8,0,3.53,0,5.29,0
			C318.55,217.4,318.55,216.16,318.55,214.83z M359.09,231.51c3.62,0,7.12,0,10.69,0c0-1.36,0-2.66,0-4.08c-1.95,0-3.82,0-5.65,0
			c0-0.76,0-1.38,0-2.13c1.69,0,3.32,0,4.95,0c0-1.4,0-2.67,0-4.07c-1.69,0-3.31,0-4.94,0c0-0.88,0-1.61,0-2.44c1.79,0,3.5,0,5.25,0
			c0-1.39,0-2.69,0-3.96c-3.48,0-6.87,0-10.29,0C359.09,220.42,359.09,225.9,359.09,231.51z M388.29,226.81
			c0,1.07-0.05,2.27,0.03,3.46c0.02,0.31,0.4,0.77,0.71,0.87c2.66,0.86,5.35,1,8.01,0c1.87-0.71,3.04-2.03,3.27-4.07
			c0.23-2.08-0.68-3.58-2.41-4.6c-0.96-0.57-2.02-0.97-3.02-1.48c-0.69-0.36-1.66-0.62-1.4-1.67c0.24-0.97,1.16-1.03,1.97-0.95
			c1.29,0.14,2.58,0.39,4.01,0.61c0-1.06,0.03-2.17-0.02-3.28c-0.01-0.24-0.29-0.62-0.51-0.67c-2.77-0.66-5.56-0.98-8.21,0.42
			c-3.41,1.79-3.64,6.27-0.42,8.37c1.03,0.67,2.29,0.97,3.33,1.64c0.51,0.32,0.73,1.09,1.09,1.65c-0.56,0.29-1.17,0.88-1.68,0.81
			C391.48,227.7,389.97,227.22,388.29,226.81z M292.43,215.05c-2.2-0.53-4.36-0.8-6.56-0.28c-3.52,0.85-5.81,3.01-6.52,6.58
			c-0.69,3.47-0.16,6.71,2.96,8.9c3,2.1,6.35,1.82,9.69,0.94c0.21-0.06,0.46-0.44,0.47-0.68c0.05-1.23,0.02-2.46,0.02-3.79
			c-2.73,0.87-5.39,1.66-7.43-1.02c-1.04-1.36-0.97-3.91,0.12-5.22c2.05-2.45,4.63-1.74,7.24-0.92
			C292.43,218.05,292.43,216.63,292.43,215.05z M300.15,227.49c0-4.32,0-8.5,0-12.64c-1.74,0-3.32,0-4.87,0c0,5.61,0,11.12,0,16.66
			c3.59,0,7.1,0,10.62,0c0-1.37,0-2.66,0-4.02C303.99,227.49,302.19,227.49,300.15,227.49z"/>
		<path d="M504.24,60.29c-0.79,1.92-1.65,3.82-2.37,5.76c-2.79,7.51-5.61,15.02-8.28,22.57c-2.91,8.24-5.74,16.5-8.44,24.81
			c-1.35,4.16-2.37,8.42-3.44,12.67c-0.29,1.14-0.28,2.36-0.31,3.55c-0.02,0.91,0.47,1.26,1.4,1.02c1.67-0.42,3.09-1.31,4.2-2.55
			c2.27-2.54,4.47-5.16,6.56-7.85c0.64-0.83,1.24-1.27,2.28-1.32c0.85-0.03,1.69-0.29,2.77-0.49c-1.16,2.42-2.18,4.68-3.32,6.88
			c-3.14,6.08-6.74,11.85-11.76,16.6c-2.72,2.57-5.78,4.68-9.53,5.51c-3.21,0.71-6.32,0.59-9.01-1.55c-0.75-0.6-1.26-1.49-1.98-2.36
			c-0.65,0.74-1.35,1.56-2.08,2.37c-4.34,4.81-8.95,9.26-15.39,11.19c-3.03,0.91-6.01,0.8-8.9-0.56c-1.78-0.84-2.43-2.52-3.13-4.17
			c-0.05-0.11-0.06-0.23-0.11-0.34c-0.01-0.02-0.06-0.03-0.25-0.13c-0.74,0.99-1.46,2.05-2.27,3.04c-2.07,2.51-4.07,5.08-6.3,7.43
			c-1.92,2.02-4.24,3.51-7.05,4.17c-4.06,0.94-8.12-2.28-8.36-6.45c-0.28-4.88,1.1-9.42,2.36-14.02c0.61-2.24,1.16-4.51,1.48-6.8
			c0.31-2.28-1.03-2.55-2.85-2.09c-2.97,0.76-5.32,2.62-7.08,4.98c-2.18,2.94-4.21,6.05-5.85,9.32c-1.96,3.91-3.5,8.03-5.09,12.11
			c-1.53,3.94-2.89,7.94-4.35,11.91c-0.1,0.28-0.36,0.63-0.63,0.72c-4.21,1.47-8.44,2.9-12.66,4.34c-0.07,0.02-0.15-0.02-0.35-0.06
			c0.85-2.58,1.7-5.15,2.55-7.71c-0.05-0.03-0.09-0.06-0.14-0.09c-0.71,0.86-1.44,1.7-2.12,2.58c-2.37,3.07-5.02,5.83-8.35,7.88
			c-2.67,1.65-5.38,1.86-7.25,0.33c-1.64-1.34-2.38-3.22-3.06-5.14c-0.13-0.36-0.22-0.74-0.36-1.2c-1.35,1.64-2.61,3.24-3.94,4.77
			c-4.03,4.62-8.42,8.81-14.27,11.05c-2.77,1.06-5.67,1.19-8.57,0.46c-3.3-0.83-4.54-3.4-5.05-6.39c-0.31-1.79-0.28-3.64-0.41-5.66
			c-1.14,1.61-2.16,3.19-3.32,4.65c-1.92,2.42-3.95,4.76-5.91,7.14c-2.57,3.13-5.49,5.89-8.87,8.08c-1.87,1.21-3.87,2.17-6.28,2.22
			c-3.85,0.08-6.37-2.73-7-6.13c-0.08-0.41-0.2-0.82-0.32-1.26c-1.75,1.94-3.37,3.88-5.15,5.67c-2.02,2.04-4.3,3.7-7.19,4.41
			c-4.21,1.04-8.31-2.11-8.55-6.41c-0.25-4.44,0.91-8.6,2-12.81c0.68-2.63,1.44-5.25,1.83-7.93c0.3-2.1-0.79-2.73-2.9-2.12
			c-2.87,0.83-5.06,2.65-6.94,4.84c-2.56,2.99-4.67,6.32-6.18,9.93c-2.63,6.3-5.02,12.69-7.5,19.06c-0.54,1.4-0.97,2.84-1.57,4.21
			c-0.2,0.46-0.68,0.95-1.14,1.11c-3.98,1.41-7.99,2.74-11.99,4.09c-0.18,0.06-0.36,0.09-0.67,0.17c0.89-2.7,1.75-5.28,2.6-7.86
			c-0.04-0.02-0.09-0.04-0.13-0.06c-1.24,1.53-2.43,3.11-3.75,4.58c-2.43,2.69-4.95,5.32-8.41,6.7c-4.15,1.66-6.37-0.46-7.88-3.62
			c-0.47-0.98-0.76-2.06-1.15-3.17c-1.27,1.53-2.48,3.05-3.76,4.53c-2.89,3.35-5.99,6.43-9.75,8.85c-3.22,2.07-6.58,3.4-10.47,3.26
			c-4.94-0.17-6.97-2.32-7.84-6.8c-0.31-1.63-0.27-3.32-0.4-5.13c-1.03,1.6-1.96,3.19-3.02,4.67c-2.3,3.22-4.59,6.44-7.03,9.55
			c-2.39,3.05-5.19,5.7-8.38,7.92c-3.05,2.12-6.28,3.77-10.12,3.99c-4,0.23-7.41-1.01-10.12-3.88c-1.67-1.77-3.09-3.77-4.65-5.71
			c-0.73,1.04-1.63,2.36-2.55,3.67c-3.31,4.7-7,9.09-11.26,12.95c-2.51,2.27-5.28,4.32-8.72,4.84c-4.8,0.73-9.35-1.45-9.59-7.45
			c-0.16-3.98,1.14-7.57,2.46-11.18c1.47-4,3.04-7.95,4.52-11.94c2.47-6.66,4.89-13.33,7.35-19.99c3.29-8.92,6.59-17.84,9.88-26.77
			c0.63-1.7,1.18-3.44,1.88-5.11c0.17-0.4,0.76-0.72,1.23-0.88c5.26-1.7,10.53-3.36,15.95-5.08c-1.12,2.86-2.22,5.62-3.29,8.39
			c-2.01,5.19-4.03,10.37-5.99,15.57c-2.18,5.8-4.37,11.6-6.42,17.45c-3.01,8.6-6.06,17.19-8.23,26.06c-0.3,1.22-0.22,2.53-0.32,3.8
			c-0.07,0.89,0.52,1.08,1.15,0.87c0.69-0.23,1.41-0.57,1.95-1.05c2.82-2.5,4.96-5.55,6.89-8.75c0.26-0.44,0.46-0.93,0.79-1.31
			c1.35-1.57,1.08-3.57,1.51-5.38c0.52-2.22,1-4.49,1.87-6.58c1.53-3.7,3.6-7.12,6.26-10.15c1.57-1.79,2.98-3.74,4.69-5.38
			c3.86-3.7,7.89-7.25,12.81-9.48c2.09-0.95,4.37-1.52,6.61-2.1c1.44-0.37,3.89,1.04,4.57,2.44c1.28,2.63,2.08,5.42,2.05,8.33
			c-0.03,3.37-1.03,6.54-2.92,9.38c-2.95,4.43-7.01,7.62-11.6,10.15c-2.31,1.27-4.74,2.33-7.11,3.49c-0.21,0.1-0.4,0.23-0.72,0.42
			c0.4,1.12,0.7,2.26,1.21,3.31c1.01,2.08,2.93,2.83,5.17,2.21c2.67-0.74,4.81-2.38,6.89-4.07c1.63-1.33,3.21-2.79,4.6-4.37
			c1.99-2.27,3.94-4.62,5.65-7.11c2.18-3.18,4.18-6.5,6.13-9.82c2.32-3.94,4.34-8.05,6.79-11.9c2.82-4.44,6.38-8.27,10.53-11.57
			c2.98-2.36,6.13-4.29,9.76-5.44c3.92-1.24,7.67-1.15,11.3,1.33c0.46-1.09,0.87-2.14,1.35-3.16c0.17-0.36,0.47-0.8,0.8-0.91
			c4.4-1.5,8.82-2.95,13.24-4.41c0.06-0.02,0.15,0.03,0.23,0.05c-1.37,3.06-2.76,6.11-4.11,9.17c-3.12,7.06-6,14.21-8.16,21.62
			c-0.85,2.92-1.49,5.9-1.33,9.01c0.12,2.28,1.54,3.36,3.75,2.79c2.85-0.74,4.53-2.9,6.08-5.08c3.62-5.07,6.19-10.69,8.22-16.57
			c2.83-8.21,5.7-16.39,8.58-24.58c0.13-0.36,0.41-0.83,0.73-0.93c3.58-1.18,7.18-2.29,11.03-3.5c-0.89,2.6-1.71,4.98-2.18,6.37
			c1.28-1.11,3.33-2.75,5.22-4.56c2.97-2.84,6.11-5.42,9.86-7.15c2.26-1.04,4.57-1.72,7.11-1.1c3.13,0.77,3.98,3.1,3.6,5.89
			c-0.91,6.77-3.97,12.85-6.17,19.21c-1.07,3.09-2.08,6.22-2.79,9.4c-0.36,1.61-0.52,3.52,1.26,4.76c0.57,0.4,1.09,0.51,1.57,0.04
			c1.35-1.31,2.85-2.54,3.93-4.05c1.45-2.04,2.49-4.36,3.83-6.48c1.07-1.7,2.3-3.3,3.52-4.9c2.16-2.81,3.26-6.09,4.42-9.36
			c2.91-8.23,5.9-16.43,8.84-24.64c2.73-7.62,5.44-15.25,8.16-22.87c0.45-1.26,0.99-2.17,2.54-2.61c5.05-1.44,10.03-3.14,15.22-4.81
			c-0.9,2.3-1.77,4.47-2.6,6.65c-2.74,7.27-5.54,14.52-8.19,21.83c-2.76,7.61-5.48,15.25-8.02,22.94c-1.54,4.68-2.71,9.49-4,14.26
			c-0.21,0.79-0.28,1.66-0.25,2.48c0.02,0.46,0.27,1.05,0.62,1.3c0.2,0.14,0.85-0.22,1.21-0.48c2.85-2.07,4.75-4.99,6.78-7.76
			c2.85-3.88,5.55-7.87,7.69-12.22c1.62-3.29,3.29-6.58,5.32-9.62c4.56-6.81,10.17-12.56,17.73-16.11c2.32-1.09,4.78-1.76,7.3-1.76
			c2.28,0,4.55,0.59,6.52,2.18c0.48-1.03,1.02-1.95,1.33-2.94c0.23-0.74,0.59-1.06,1.32-1.3c4.19-1.36,8.35-2.8,12.53-4.2
			c0.14-0.05,0.3-0.04,0.57-0.08c-0.66,1.46-1.27,2.84-1.9,4.21c-3.63,7.85-7.01,15.8-9.62,24.06c-1.19,3.78-2.33,7.56-2.14,11.61
			c0.11,2.27,1.54,3.35,3.73,2.79c2.86-0.73,4.56-2.91,6.09-5.09c3.54-5.02,6.14-10.54,8.11-16.37c2.57-7.6,5.43-15.1,7.89-22.74
			c0.75-2.32,1.92-3.31,4.19-3.83c2.75-0.63,5.4-1.71,8.39-2.69c-0.9,2.61-1.71,5-2.53,7.39c0.05,0.03,0.1,0.07,0.15,0.1
			c0.96-1.03,1.92-2.06,2.89-3.07c2.97-3.12,6.06-6.11,9.78-8.33c2.53-1.51,5.15-2.85,8.23-2.69c3.6,0.18,5.59,2.39,5.01,6.38
			c-0.99,6.74-3.97,12.79-6.21,19.1c-1.3,3.68-2.88,7.31-2.75,11.33c0.02,0.67,0.26,1.41,0.62,1.97c0.81,1.22,1.82,1.44,2.8,0.41
			c1.75-1.85,3.49-3.76,4.9-5.87c3.01-4.5,5.42-9.33,7.14-14.49c1.07-3.21,2.01-6.51,3.54-9.5c1.79-3.49,4.01-6.8,6.34-9.96
			c3.08-4.19,6.87-7.73,11.23-10.58c3.7-2.42,7.65-4.31,12.21-3.89c1.94,0.18,3.83,1,5.96,1.59c0.5-1.15,1.23-2.6,1.77-4.11
			c2.67-7.42,5.3-14.87,7.95-22.3c1.28-3.6,2.53-7.22,3.88-10.8c0.2-0.53,0.79-1.11,1.33-1.3c4.98-1.72,9.98-3.36,14.97-5.02
			c0.1-0.03,0.16-0.15,0.24-0.22C503.82,59.88,504.39,59.55,504.24,60.29z M360.86,148.05c-0.46-0.21-0.87-0.45-1.3-0.59
			c-0.44-0.15-0.91-0.26-1.38-0.31c-4.54-0.51-8.35,1.17-11.64,4.11c-4.07,3.64-7.06,8.09-9.28,13.07c-1.2,2.7-2.11,5.51-1.87,8.49
			c0.2,2.54,1.09,4.66,3.93,4.98c1.1,0.13,2.38-0.21,3.4-0.7c2.65-1.26,4.89-3.14,6.56-5.56c2.24-3.24,4.7-6.4,6.39-9.91
			C357.77,157.28,359.17,152.59,360.86,148.05z M222.31,187.76c-2.54-1.52-7.45-1-9.92,0.26c-3.11,1.6-5.59,3.85-7.79,6.52
			c-3.25,3.94-5.82,8.23-7.19,13.18c-0.63,2.27-0.98,4.57-0.15,6.9c0.77,2.15,2.6,3.13,4.8,2.82c2.57-0.36,4.45-1.88,6.19-3.5
			c3.79-3.51,6.65-7.79,8.77-12.43C219.07,197.05,220.57,192.34,222.31,187.76z M470.41,111.76c-1.93-0.9-3.84-1.18-5.74-0.91
			c-4.97,0.73-8.64,3.66-11.64,7.44c-1.76,2.22-3.34,4.61-4.78,7.05c-2.12,3.59-3.56,7.45-3.17,11.73c0.3,3.35,2.72,5.33,6.11,4.23
			c2.12-0.69,3.97-1.9,5.41-3.51c2.08-2.31,4.03-4.77,5.76-7.35c1.41-2.11,2.56-4.43,3.59-6.76c1.23-2.78,2.21-5.66,3.28-8.51
			C469.65,114.05,470.02,112.9,470.41,111.76z M171.29,205.22c0-0.32,0.07-0.66-0.01-0.96c-0.2-0.66-0.31-1.58-0.77-1.84
			c-0.42-0.24-1.45,0.04-1.87,0.45c-1.57,1.49-3.15,3.02-4.46,4.74c-2.2,2.89-4.2,5.94-5.01,9.56c-0.15,0.69-0.04,1.74,0.4,2.18
			c0.58,0.59,1.47,0.17,2.13-0.39c2.03-1.73,4.21-3.32,6.08-5.22C170.04,211.43,171.37,208.58,171.29,205.22z"/>
		<path d="M0.24,237.36c0.16-1.16,0.36-2.31,0.47-3.47c0.4-4.13,1.5-8.07,3.02-11.91c2.53-6.35,6.06-12.1,10.66-17.15
			c2.65-2.91,5.32-5.82,8.24-8.45c4.83-4.33,10.08-8.13,15.58-11.6c5.82-3.68,11.77-7.14,18.03-10c6.7-3.07,13.47-6.03,20.38-8.6
			c7.74-2.88,15.65-5.3,23.5-7.86c2.09-0.68,4.25-1.12,6.37-1.68c2.85,3.47,5.69,6.93,8.52,10.38c2.91,3.55,5.83,7.1,8.73,10.67
			c0.39,0.48,0.5,0.93,0.2,1.65c-2.29,5.46-4.49,10.96-6.74,16.43c-0.15,0.36-0.5,0.76-0.85,0.9c-6.15,2.35-12.31,4.66-18.7,7.07
			c0.89-2.46,1.71-4.74,2.53-7.02c1.67-4.64,3.38-9.27,4.97-13.95c0.15-0.45-0.26-1.24-0.63-1.7c-3.25-4.1-6.56-8.16-9.84-12.24
			c-0.55-0.69-1.08-1.13-2.07-0.77c-3.84,1.4-7.78,2.58-11.56,4.14c-5.98,2.46-11.36,6.01-16.5,9.9
			c-4.43,3.35-8.47,7.15-12.22,11.23c-3.88,4.22-7.41,8.75-10.34,13.68c-4.22,7.1-7.5,14.59-9.1,22.78
			c-0.9,4.58-1.16,9.19-0.85,13.79c0.47,6.86,2.56,13.29,6.04,19.27c2.66,4.57,5.87,8.68,9.7,12.3c3.83,3.62,8.19,6.44,13.11,8.37
			c4.23,1.66,8.6,2.6,13.14,2.95c4.04,0.31,8.02,0.14,12.04-0.25c7.01-0.68,13.75-2.45,20.46-4.46c7.38-2.22,14.54-5.05,21.61-8.08
			c5.59-2.39,11.12-4.92,16.64-7.46c5.77-2.66,11.48-5.45,17.25-8.12c8.27-3.84,16.49-7.8,24.87-11.39
			c7.75-3.33,15.61-6.43,23.54-9.28c5.81-2.09,11.78-3.79,17.76-5.37c4.08-1.07,8.27-1.78,12.45-2.35c4.01-0.54,8.06-0.82,12.1-0.97
			c3.24-0.12,6.5,0.04,9.75,0.23c1.89,0.11,3.76,0.51,5.74,0.79c-2.44,8.22-4.87,16.42-7.34,24.76c-0.85-0.3-1.65-0.58-2.45-0.86
			c-3.78-1.35-7.67-2.15-11.69-2.33c-2.43-0.11-4.88-0.37-7.3-0.2c-4.22,0.31-8.45,0.7-12.62,1.43c-5.12,0.89-10.25,1.92-15.25,3.32
			c-7.45,2.08-14.85,4.39-22.18,6.89c-7.49,2.55-14.87,5.44-22.29,8.21c-6.95,2.6-13.88,5.28-20.84,7.85
			c-7.74,2.86-15.45,5.83-23.29,8.38c-9.08,2.96-18.25,5.67-27.46,8.18c-5.01,1.37-10.19,2.19-15.32,3.07
			c-3.31,0.57-6.67,0.86-10.02,1.21c-1.62,0.17-3.26,0.17-4.88,0.27c-0.21,0.01-0.41,0.15-0.61,0.23c-1.92,0-3.85,0-5.77,0
			c-0.24-0.08-0.49-0.23-0.73-0.23c-4.58-0.01-9.08-0.69-13.53-1.7c-9.34-2.12-17.64-6.33-24.5-13.01
			c-2.93-2.85-5.51-6.14-7.89-9.49c-3.79-5.34-6.58-11.24-8.7-17.45c-1.4-4.08-2.51-8.21-2.88-12.52c-0.1-1.12-0.31-2.23-0.46-3.34
			C0.24,240.72,0.24,239.04,0.24,237.36z"/>
		<path class="st0" d="M0.24,242.41c0.16,1.11,0.37,2.22,0.46,3.34c0.37,4.31,1.48,8.44,2.88,12.52c2.13,6.21,4.91,12.11,8.7,17.45
			c2.38,3.35,4.95,6.64,7.89,9.49c6.86,6.68,15.16,10.89,24.5,13.01c4.45,1.01,8.95,1.69,13.53,1.7c0.24,0,0.49,0.15,0.73,0.23
			c-19.57,0-39.13,0-58.7,0C0.24,280.9,0.24,261.65,0.24,242.41z"/>
		<path d="M351.14,223.69c0-2.95,0-5.9,0-8.9c1.53,0,2.96,0,4.47,0c0,5.58,0,11.12,0,16.78c-1.35,0-2.62,0.07-3.89-0.04
			c-0.37-0.03-0.78-0.5-1.04-0.86c-2.12-2.86-4.21-5.74-6.48-8.86c0,3.37,0,6.49,0,9.68c-1.6,0-3.06,0-4.59,0
			c0-5.56,0-11.07,0-16.75c1.46,0,2.88-0.04,4.3,0.03c0.3,0.02,0.64,0.41,0.86,0.71c2.05,2.75,4.08,5.52,6.11,8.28
			C350.96,223.75,351.05,223.72,351.14,223.69z"/>
		<path d="M382.26,224.01c3.13,1.56,3.11,4.87,4.59,7.57c-1.89,0-3.52,0.04-5.15-0.04c-0.3-0.01-0.68-0.46-0.83-0.79
			c-0.51-1.17-0.9-2.39-1.4-3.57c-0.35-0.82-0.97-1.33-2.07-1.38c0,1.94,0,3.8,0,5.71c-1.72,0-3.3,0-4.95,0c0-5.58,0-11.09,0-16.78
			c3.52,0.15,7.09-0.44,10.57,0.56c1.66,0.48,2.73,1.64,2.9,3.46c0.18,1.97-0.45,3.55-2.22,4.56
			C383.25,223.57,382.78,223.76,382.26,224.01z M377.46,222.13c1.14,0.18,2.26,0.18,2.77-0.88c0.31-0.65,0.33-1.67,0.03-2.32
			c-0.53-1.16-1.72-0.8-2.8-0.78C377.46,219.51,377.46,220.8,377.46,222.13z"/>
		<path d="M337.31,231.58c-1.46,0-2.86-0.04-4.25,0.02c-0.74,0.03-1.09-0.2-1.21-0.94c-0.12-0.7-0.34-1.39-0.53-2.14
			c-1.71,0-3.37,0-5.1,0c-0.27,1.01-0.54,2-0.8,2.99c-1.77,0-3.47,0-5.34,0c0.65-1.92,1.25-3.73,1.87-5.54
			c1.19-3.44,2.4-6.88,3.56-10.33c0.23-0.67,0.52-0.95,1.26-0.92c1.48,0.06,2.97-0.02,4.44,0.05c0.36,0.02,0.91,0.35,1.01,0.66
			c1.75,5.24,3.43,10.5,5.13,15.75C337.36,231.26,337.33,231.34,337.31,231.58z M328.75,218.36c-0.6,2.36-1.11,4.36-1.63,6.42
			c1.16,0,2.14,0,3.25,0C329.84,222.69,329.34,220.7,328.75,218.36z"/>
		<path d="M318.55,214.83c0,1.33,0,2.57,0,3.97c-1.76,0-3.5,0-5.29,0c0,0.87,0,1.57,0,2.42c1.65,0,3.27,0,4.95,0
			c0,1.41,0,2.67,0,4.07c-1.65,0-3.27,0-4.95,0c0,0.76,0,1.38,0,2.16c1.87,0,3.73,0,5.67,0c0,1.41,0,2.67,0,4.03
			c-3.53,0-7.04,0-10.64,0c0-5.51,0-11.05,0-16.66C311.7,214.83,315.11,214.83,318.55,214.83z"/>
		<path d="M359.09,231.51c0-5.61,0-11.1,0-16.68c3.42,0,6.81,0,10.29,0c0,1.27,0,2.57,0,3.96c-1.75,0-3.46,0-5.25,0
			c0,0.83,0,1.56,0,2.44c1.63,0,3.25,0,4.94,0c0,1.4,0,2.67,0,4.07c-1.63,0-3.25,0-4.95,0c0,0.75,0,1.38,0,2.13c1.84,0,3.7,0,5.65,0
			c0,1.42,0,2.72,0,4.08C366.22,231.51,362.71,231.51,359.09,231.51z"/>
		<path d="M388.29,226.81c1.67,0.41,3.19,0.89,4.74,1.1c0.51,0.07,1.12-0.52,1.68-0.81c-0.35-0.56-0.58-1.32-1.09-1.65
			c-1.03-0.66-2.3-0.97-3.33-1.64c-3.22-2.1-2.99-6.58,0.42-8.37c2.65-1.39,5.44-1.07,8.21-0.42c0.22,0.05,0.5,0.43,0.51,0.67
			c0.05,1.11,0.02,2.22,0.02,3.28c-1.43-0.23-2.72-0.48-4.01-0.61c-0.81-0.09-1.73-0.02-1.97,0.95c-0.26,1.05,0.71,1.31,1.4,1.67
			c0.99,0.52,2.05,0.91,3.02,1.48c1.73,1.02,2.64,2.52,2.41,4.6c-0.23,2.05-1.39,3.37-3.27,4.07c-2.66,1-5.35,0.87-8.01,0
			c-0.31-0.1-0.69-0.55-0.71-0.87C388.24,229.09,388.29,227.88,388.29,226.81z"/>
		<path d="M292.43,215.05c0,1.58,0,3,0,4.51c-2.61-0.83-5.19-1.54-7.24,0.92c-1.1,1.31-1.16,3.86-0.12,5.22
			c2.04,2.68,4.7,1.89,7.43,1.02c0,1.34,0.03,2.57-0.02,3.79c-0.01,0.24-0.26,0.63-0.47,0.68c-3.34,0.88-6.69,1.17-9.69-0.94
			c-3.12-2.19-3.64-5.42-2.96-8.9c0.71-3.57,3-5.74,6.52-6.58C288.07,214.25,290.23,214.52,292.43,215.05z"/>
		<path d="M300.15,227.49c2.05,0,3.84,0,5.75,0c0,1.35,0,2.65,0,4.02c-3.52,0-7.02,0-10.62,0c0-5.53,0-11.04,0-16.66
			c1.55,0,3.13,0,4.87,0C300.15,218.98,300.15,223.16,300.15,227.49z"/>
		<path class="st0" d="M360.86,148.05c-1.7,4.54-3.1,9.23-5.19,13.58c-1.69,3.52-4.15,6.68-6.39,9.91c-1.67,2.42-3.9,4.3-6.56,5.56
			c-1.03,0.49-2.3,0.82-3.4,0.7c-2.85-0.32-3.74-2.44-3.93-4.98c-0.23-2.98,0.67-5.79,1.87-8.49c2.22-4.97,5.21-9.43,9.28-13.07
			c3.28-2.94,7.1-4.61,11.64-4.11c0.47,0.05,0.93,0.16,1.38,0.31C360,147.61,360.41,147.84,360.86,148.05z"/>
		<path class="st0" d="M222.31,187.76c-1.74,4.59-3.24,9.29-5.28,13.76c-2.13,4.65-4.99,8.92-8.77,12.43
			c-1.75,1.62-3.63,3.14-6.19,3.5c-2.19,0.31-4.03-0.68-4.8-2.82c-0.84-2.33-0.48-4.62,0.15-6.9c1.37-4.95,3.94-9.24,7.19-13.18
			c2.2-2.67,4.68-4.92,7.79-6.52C214.86,186.75,219.77,186.24,222.31,187.76z"/>
		<path class="st0" d="M470.41,111.76c-0.39,1.14-0.77,2.29-1.19,3.42c-1.07,2.85-2.05,5.73-3.28,8.51
			c-1.03,2.33-2.17,4.65-3.59,6.76c-1.73,2.58-3.68,5.04-5.76,7.35c-1.44,1.61-3.29,2.82-5.41,3.51c-3.39,1.1-5.81-0.88-6.11-4.23
			c-0.38-4.28,1.05-8.14,3.17-11.73c1.44-2.44,3.02-4.84,4.78-7.05c3.01-3.78,6.68-6.71,11.64-7.44
			C466.58,110.58,468.48,110.87,470.41,111.76z"/>
		<path class="st0" d="M171.29,205.22c0.08,3.36-1.24,6.21-3.52,8.53c-1.87,1.89-4.04,3.48-6.08,5.22
			c-0.65,0.55-1.55,0.98-2.13,0.39c-0.44-0.44-0.55-1.5-0.4-2.18c0.81-3.62,2.81-6.67,5.01-9.56c1.31-1.72,2.89-3.24,4.46-4.74
			c0.43-0.4,1.45-0.69,1.87-0.45c0.46,0.26,0.57,1.19,0.77,1.84C171.36,204.56,171.29,204.9,171.29,205.22z"/>
		<path class="st0" d="M377.46,222.13c0-1.33,0-2.62,0-3.98c1.08-0.02,2.28-0.38,2.8,0.78c0.3,0.65,0.28,1.67-0.03,2.32
			C379.72,222.31,378.59,222.31,377.46,222.13z"/>
		<path class="st0" d="M328.75,218.36c0.59,2.34,1.09,4.33,1.61,6.42c-1.11,0-2.08,0-3.25,0
			C327.64,222.72,328.15,220.72,328.75,218.36z"/>
	</g>
</g>
</svg>
